<svg width="500" height="500" viewBox="0 0 500 500" fill="none" xmlns="http://www.w3.org/2000/svg">
<path fill-rule="evenodd" clip-rule="evenodd" d="M314.788 212.963C314.698 212.963 314.608 212.963 314.518 212.963C314.447 212.963 314.375 212.963 314.304 212.963C314.188 212.963 314.072 212.963 313.955 212.963M313.955 212.963L314.304 212.963L314.518 212.963L314.788 212.963" fill="#5A4CFF"/>
<path fill-rule="evenodd" clip-rule="evenodd" d="M212.963 314.788C212.963 314.695 212.963 314.601 212.963 314.507C212.963 314.471 212.963 314.435 212.963 314.399L212.963 314.507L212.963 314.788Z" fill="#5A4CFF"/>
<path fill-rule="evenodd" clip-rule="evenodd" d="M267.059 257.221C267.088 257.154 267.116 257.086 267.144 257.018C267.138 257.032 267.132 257.046 267.126 257.059L267.113 257.09L267.101 257.119C267.087 257.153 267.073 257.187 267.059 257.221Z" fill="#8A8CFE"/>
<path fill-rule="evenodd" clip-rule="evenodd" d="M253.744 271.111C253.997 269.309 255.397 267.82 257.116 267.102C256.878 267.201 256.646 267.315 256.423 267.442C255.03 268.237 253.961 269.556 253.744 271.111Z" fill="#5A4CFF"/>
<path d="M314.518 212.963L314.788 212.963H314.793H314.815C330.156 212.963 342.593 200.526 342.593 185.185C342.593 169.844 330.156 157.407 314.815 157.407C299.474 157.407 287.037 169.844 287.037 185.185C287.037 185.476 287.037 185.768 287.037 186.062C287.043 196.218 287.05 207.712 279.926 214.836L262.719 232.043C261.263 233.499 259.027 233.691 257.125 232.902C261.623 234.778 265.222 238.377 267.098 242.875C266.309 240.973 266.501 238.737 267.957 237.281L285.164 220.074C292.288 212.95 303.785 212.957 313.942 212.963H313.955L314.304 212.963L314.518 212.963Z" fill="#8A8CFE"/>
<path d="M232.898 242.885C234.745 238.456 238.265 234.891 242.666 232.991C240.893 233.752 238.773 233.585 237.407 232.222L220.062 214.847C212.949 207.721 212.956 196.239 212.963 186.086L212.963 185.185C212.963 169.844 200.526 157.407 185.185 157.407C178.85 157.407 173.01 159.528 168.337 163.099C166.367 164.604 164.604 166.366 163.099 168.336C159.528 173.01 157.407 178.85 157.407 185.185C157.407 200.526 169.844 212.963 185.185 212.963C185.476 212.963 185.768 212.963 186.062 212.963C196.218 212.957 207.712 212.95 214.836 220.074L232.043 237.28C233.5 238.737 233.688 240.982 232.898 242.885Z" fill="#8A8CFE"/>
<path d="M267.059 257.221C265.171 261.678 261.589 265.241 257.116 267.102C259.02 266.309 261.261 266.498 262.719 267.957L279.926 285.164C287.05 292.288 287.043 303.782 287.037 313.938L287.037 314.568L287.037 314.815C287.037 330.156 299.474 342.593 314.815 342.593C321.15 342.593 326.99 340.472 331.663 336.901C333.634 335.396 335.396 333.633 336.901 331.663C340.472 326.99 342.593 321.15 342.593 314.815C342.593 299.474 330.156 287.037 314.815 287.037C314.524 287.037 314.232 287.037 313.938 287.037C303.782 287.043 292.288 287.05 285.164 279.926L267.957 262.729C266.522 261.295 266.314 259.105 267.059 257.221Z" fill="#8A8CFE"/>
<path d="M212.963 314.788L212.963 314.507L212.963 314.399L212.963 313.942C212.957 303.785 212.95 292.288 220.074 285.164L237.281 267.957C238.738 266.5 240.981 266.312 242.884 267.102C238.385 265.226 234.779 261.624 232.902 257.125C233.691 259.027 233.499 261.263 232.043 262.719L214.836 279.926C207.712 287.05 196.218 287.043 186.062 287.037C185.768 287.037 185.476 287.037 185.185 287.037C169.844 287.037 157.407 299.474 157.407 314.815C157.407 330.156 169.844 342.593 185.185 342.593C200.526 342.593 212.963 330.156 212.963 314.815V314.793V314.788Z" fill="#8A8CFE"/>
<path d="M242.906 232.889C245.091 231.982 247.487 231.481 250 231.481C252.517 231.481 254.917 231.984 257.105 232.894C255.206 232.098 253.704 230.366 253.704 228.307L253.704 144.016C253.704 132.594 263.09 123.529 272.223 116.669C281.219 109.912 287.037 99.1538 287.037 87.037C287.037 66.582 270.455 50 250 50C229.545 50 212.963 66.582 212.963 87.037C212.963 99.1538 218.781 109.912 227.777 116.669C236.91 123.529 246.296 132.594 246.296 144.016V228.291C246.296 230.36 244.815 232.092 242.906 232.889Z" fill="#5A4CFF"/>
<path d="M267.105 242.891C268.016 245.08 268.519 247.481 268.519 250C268.519 252.484 268.03 254.854 267.144 257.018C267.956 255.16 269.668 253.704 271.696 253.704L355.984 253.704C367.406 253.704 376.471 263.09 383.331 272.223C390.088 281.219 400.846 287.037 412.963 287.037C433.418 287.037 450 270.455 450 250C450 229.545 433.418 212.963 412.963 212.963C400.846 212.963 390.088 218.782 383.331 227.777C376.471 236.91 367.406 246.296 355.984 246.296H271.693C269.633 246.296 267.9 244.792 267.105 242.891Z" fill="#5A4CFF"/>
<path d="M256.423 267.442C256.646 267.315 256.878 267.201 257.116 267.102C254.927 268.013 252.519 268.519 250 268.519C247.476 268.519 245.076 268.016 242.884 267.102C244.788 267.895 246.296 269.63 246.296 271.693V355.984C246.296 367.406 236.91 376.471 227.777 383.331C218.782 390.088 212.963 400.846 212.963 412.963C212.963 433.418 229.545 450 250 450C270.455 450 287.037 433.418 287.037 412.963C287.037 400.846 281.219 390.088 272.223 383.331C263.09 376.471 253.704 367.406 253.704 355.984L253.704 271.693C253.704 271.5 253.717 271.31 253.743 271.123L253.744 271.111C253.961 269.556 255.03 268.237 256.423 267.442Z" fill="#5A4CFF"/>
<path d="M232.894 257.105C231.984 254.917 231.481 252.517 231.481 250C231.481 247.476 231.984 245.077 232.898 242.885C232.105 244.789 230.369 246.298 228.306 246.298L144.032 246.312C132.604 246.314 123.535 236.92 116.672 227.781C109.915 218.783 99.1557 212.963 87.037 212.963C66.582 212.963 50 229.545 50 250C50 270.455 66.582 287.037 87.037 287.037C99.1538 287.037 109.912 281.218 116.669 272.223C123.529 263.09 132.594 253.704 144.016 253.704H228.307C230.366 253.704 232.098 255.206 232.894 257.105Z" fill="#5A4CFF"/>
<path d="M257.125 232.902L257.116 232.898L257.105 232.894C254.917 231.984 252.517 231.481 250 231.481C247.487 231.481 245.091 231.982 242.906 232.889C242.826 232.922 242.745 232.956 242.666 232.991C238.265 234.891 234.745 238.456 232.898 242.885C231.984 245.077 231.481 247.476 231.481 250C231.481 252.517 231.984 254.917 232.894 257.105L232.902 257.125C234.779 261.624 238.385 265.226 242.884 267.102C245.076 268.016 247.476 268.519 250 268.519C252.519 268.519 254.927 268.013 257.116 267.102C261.589 265.241 265.171 261.678 267.059 257.221C267.073 257.187 267.087 257.153 267.101 257.119L267.113 257.09L267.126 257.059L267.144 257.018C268.03 254.854 268.519 252.484 268.519 250C268.519 247.481 268.016 245.08 267.105 242.891L267.102 242.884L267.098 242.875C265.222 238.377 261.623 234.778 257.125 232.902Z" fill="#8A8CFE"/>
</svg>
